<svg
	height="2100"
	version="1.1"
	width="2750"
	xmlns="http://www.w3.org/2000/svg">
	<g
		transform="translate(0, 0)">
		<rect
			fill="white"
			height="2100"
			rx="10"
			stroke="black"
			stroke-width="2"
			width="2750">
		</rect>
		<g>
			<path
				d="M 916.6667 0V 10Q 916.6667 20 926.6667 20H 2181.6667Q 2191.6667 20 2191.6667 30V 200"
				fill="transparent"
				stroke="Blue"
				stroke-linecap="round"
				stroke-width="2">
			</path>
			<path
				d="M 1833.3334 0V 20Q 1833.3334 30 1823.3334 30H 868.3334Q 858.3334 30 858.3334 40V 200"
				fill="transparent"
				stroke="Blue"
				stroke-linecap="round"
				stroke-width="2">
			</path>
			<path
				d="M 100 150V 172.5Q 100 182.5 110 182.5H 1515Q 1525 182.5 1525 192.5V 200"
				fill="transparent"
				stroke="Blue"
				stroke-linecap="round"
				stroke-width="2">
			</path>
			<path
				d="M 250 150V 165Q 250 175 260 175H 1848.3334Q 1858.3334 175 1858.3334 185V 200"
				fill="transparent"
				stroke="Blue"
				stroke-linecap="round"
				stroke-width="2">
			</path>
			<path
				d="M 400 150V 157.5Q 400 167.5 410 167.5H 1181.6667Q 1191.6667 167.5 1191.6667 177.5V 200"
				fill="transparent"
				stroke="Blue"
				stroke-linecap="round"
				stroke-width="2">
			</path>
			<path
				d="M 1096.4286 1900V 1905Q 1096.4286 1915 1106.4286 1915H 2656.6667Q 2666.6667 1915 2666.6667 1925V 1950"
				fill="transparent"
				stroke="Blue"
				stroke-linecap="round"
				stroke-width="2">
			</path>
			<path
				d="M 1382.1428 1900V 1910Q 1382.1428 1920 1392.1428 1920H 2623.3333Q 2633.3333 1920 2633.3333 1930V 1950"
				fill="transparent"
				stroke="Blue"
				stroke-linecap="round"
				stroke-width="2">
			</path>
			<path
				d="M 2650 2050V 2065Q 2650 2075 2640 2075H 1385Q 1375 2075 1375 2085V 2100"
				fill="transparent"
				stroke="Red"
				stroke-linecap="round"
				stroke-width="2">
			</path>
		</g>
		<g>
			<g
				transform="translate(50, 50)">
				<g>
					<rect
						fill="#FFFF80"
						height="100"
						rx="10"
						stroke="black"
						stroke-width="2"
						width="100">
					</rect>
					<text
						fill="black"
						font-size="50"
						text-anchor="middle"
						x="50"
						y="62.5">
						10
					</text>
				</g>
				<circle
					cx="50"
					cy="100"
					fill="white"
					r="4"
					stroke="black"
					stroke-width="2">
				</circle>
			</g>
			<g
				transform="translate(200, 50)">
				<g>
					<rect
						fill="#FFFF80"
						height="100"
						rx="10"
						stroke="black"
						stroke-width="2"
						width="100">
					</rect>
					<text
						fill="black"
						font-size="50"
						text-anchor="middle"
						x="50"
						y="62.5">
						0
					</text>
				</g>
				<circle
					cx="50"
					cy="100"
					fill="white"
					r="4"
					stroke="black"
					stroke-width="2">
				</circle>
			</g>
			<g
				transform="translate(350, 50)">
				<g>
					<rect
						fill="#FFFF80"
						height="100"
						rx="10"
						stroke="black"
						stroke-width="2"
						width="100">
					</rect>
					<text
						fill="black"
						font-size="50"
						text-anchor="middle"
						x="50"
						y="62.5">
						0
					</text>
				</g>
				<circle
					cx="50"
					cy="100"
					fill="white"
					r="4"
					stroke="black"
					stroke-width="2">
				</circle>
			</g>
			<g
				transform="translate(500, 200)">
				<rect
					fill="#FF8080"
					height="1700"
					rx="10"
					stroke="black"
					stroke-width="2"
					width="2050">
				</rect>
				<text
					fill="black"
					font-size="50"
					x="25"
					y="50">
					loop
				</text>
				<g
					transform="translate(25, 75)">
					<rect
						fill="white"
						height="1600"
						rx="10"
						stroke="black"
						stroke-width="2"
						width="2000">
					</rect>
					<g>
						<path
							d="M 333.33334 0V 5Q 333.33334 15 343.33334 15H 904.2857Q 914.2857 15 914.2857 25V 500"
							fill="transparent"
							stroke="Blue"
							stroke-linecap="round"
							stroke-width="2">
						</path>
						<path
							d="M 666.6667 0V 10Q 666.6667 20 676.6667 20H 1111.4286Q 1121.4286 20 1121.4286 30V 500"
							fill="transparent"
							stroke="Blue"
							stroke-linecap="round"
							stroke-width="2">
						</path>
						<path
							d="M 1000 0V 15Q 1000 25 990 25H 243.33333Q 233.33333 25 233.33333 35V 200"
							fill="transparent"
							stroke="Blue"
							stroke-linecap="round"
							stroke-width="2">
						</path>
						<path
							d="M 1000 0V 15Q 1000 25 1010 25H 1318.5714Q 1328.5714 25 1328.5714 35V 500"
							fill="transparent"
							stroke="Blue"
							stroke-linecap="round"
							stroke-width="2">
						</path>
						<path
							d="M 1333.3334 0V 20Q 1333.3334 30 1343.3334 30H 1525.7142Q 1535.7142 30 1535.7142 40V 500"
							fill="transparent"
							stroke="Blue"
							stroke-linecap="round"
							stroke-width="2">
						</path>
						<path
							d="M 1666.6667 0V 25Q 1666.6667 35 1676.6667 35H 1732.8572Q 1742.8572 35 1742.8572 45V 500"
							fill="transparent"
							stroke="Blue"
							stroke-linecap="round"
							stroke-width="2">
						</path>
						<path
							d="M 100 150V 165Q 100 175 110 175H 256.66666Q 266.66666 175 266.66666 185V 200"
							fill="transparent"
							stroke="Blue"
							stroke-linecap="round"
							stroke-width="2">
						</path>
						<path
							d="M 250 300V 315Q 250 325 260 325H 390Q 400 325 400 335V 350"
							fill="transparent"
							stroke="Blue"
							stroke-linecap="round"
							stroke-width="2">
						</path>
						<path
							d="M 400 450V 465Q 400 475 410 475H 697.1428Q 707.1428 475 707.1428 485V 500"
							fill="transparent"
							stroke="Blue"
							stroke-linecap="round"
							stroke-width="2">
						</path>
						<path
							d="M 707.1428 1550V 1558.5714Q 707.1428 1568.5714 697.1428 1568.5714H 581.4286Q 571.4286 1568.5714 571.4286 1578.5714V 1600"
							fill="transparent"
							stroke="Red"
							stroke-linecap="round"
							stroke-width="2">
						</path>
						<path
							d="M 914.2857 1550V 1562.8572Q 914.2857 1572.8572 904.2857 1572.8572H 867.1429Q 857.1429 1572.8572 857.1429 1582.8572V 1600"
							fill="transparent"
							stroke="Red"
							stroke-linecap="round"
							stroke-width="2">
						</path>
						<path
							d="M 1121.4286 1550V 1554.2858Q 1121.4286 1564.2858 1111.4286 1564.2858H 295.7143Q 285.7143 1564.2858 285.7143 1574.2858V 1600"
							fill="transparent"
							stroke="Red"
							stroke-linecap="round"
							stroke-width="2">
						</path>
						<path
							d="M 1328.5714 1550V 1567.1428Q 1328.5714 1577.1428 1318.5714 1577.1428H 1152.8572Q 1142.8572 1577.1428 1142.8572 1587.1428V 1600"
							fill="transparent"
							stroke="Red"
							stroke-linecap="round"
							stroke-width="2">
						</path>
						<path
							d="M 1535.7142 1550V 1571.4286Q 1535.7142 1581.4286 1525.7142 1581.4286H 1438.5715Q 1428.5715 1581.4286 1428.5715 1591.4286V 1600"
							fill="transparent"
							stroke="Red"
							stroke-linecap="round"
							stroke-width="2">
						</path>
						<path
							d="M 1742.8572 1550V 1575.7142Q 1742.8572 1585.7142 1732.8572 1585.7142H 1724.2858Q 1714.2858 1585.7142 1714.2858 1595.7142V 1600"
							fill="transparent"
							stroke="Red"
							stroke-linecap="round"
							stroke-width="2">
						</path>
					</g>
					<g>
						<g
							transform="translate(50, 50)">
							<g>
								<rect
									fill="#FFFF80"
									height="100"
									rx="10"
									stroke="black"
									stroke-width="2"
									width="100">
								</rect>
								<text
									fill="black"
									font-size="50"
									text-anchor="middle"
									x="50"
									y="62.5">
									5
								</text>
							</g>
							<circle
								cx="50"
								cy="100"
								fill="white"
								r="4"
								stroke="black"
								stroke-width="2">
							</circle>
						</g>
						<g
							transform="translate(200, 200)">
							<g>
								<rect
									fill="#FFFF80"
									height="100"
									rx="10"
									stroke="black"
									stroke-width="2"
									width="100">
								</rect>
								<text
									fill="black"
									font-size="50"
									text-anchor="middle"
									x="50"
									y="62.5">
									eq
								</text>
							</g>
							<circle
								cx="33.333332"
								cy="0"
								fill="white"
								r="4"
								stroke="black"
								stroke-width="2">
							</circle>
							<circle
								cx="66.666664"
								cy="0"
								fill="white"
								r="4"
								stroke="black"
								stroke-width="2">
							</circle>
							<circle
								cx="50"
								cy="100"
								fill="white"
								r="4"
								stroke="black"
								stroke-width="2">
							</circle>
						</g>
						<g
							transform="translate(350, 350)">
							<g>
								<rect
									fill="#FFFF80"
									height="100"
									rx="10"
									stroke="black"
									stroke-width="2"
									width="100">
								</rect>
								<text
									fill="black"
									font-size="50"
									text-anchor="middle"
									x="50"
									y="62.5">
									not
								</text>
							</g>
							<circle
								cx="50"
								cy="0"
								fill="white"
								r="4"
								stroke="black"
								stroke-width="2">
							</circle>
							<circle
								cx="50"
								cy="100"
								fill="white"
								r="4"
								stroke="black"
								stroke-width="2">
							</circle>
						</g>
						<g
							transform="translate(500, 500)">
							<rect
								fill="#80FF80"
								height="1050"
								rx="10"
								stroke="black"
								stroke-width="2"
								width="1450">
							</rect>
							<text
								fill="black"
								font-size="50"
								x="25"
								y="50">
								if
							</text>
							<g>
								<g
									transform="translate(25, 125)">
									<rect
										fill="white"
										height="900"
										rx="10"
										stroke="black"
										stroke-width="2"
										width="1175">
									</rect>
									<g>
										<path
											d="M 195.83333 0V 5Q 195.83333 15 205.83333 15H 732.8571Q 742.8571 15 742.8571 25V 500"
											fill="transparent"
											stroke="Blue"
											stroke-linecap="round"
											stroke-width="2">
										</path>
										<path
											d="M 391.66666 0V 10Q 391.66666 20 387.5 20H 387.5Q 383.33334 20 383.33334 30V 350"
											fill="transparent"
											stroke="Blue"
											stroke-linecap="round"
											stroke-width="2">
										</path>
										<path
											d="M 587.5 0V 15Q 587.5 25 597.5 25H 825.7143Q 835.7143 25 835.7143 35V 500"
											fill="transparent"
											stroke="Blue"
											stroke-linecap="round"
											stroke-width="2">
										</path>
										<path
											d="M 783.3333 0V 20Q 783.3333 30 773.3333 30H 243.33333Q 233.33333 30 233.33333 40V 200"
											fill="transparent"
											stroke="Blue"
											stroke-linecap="round"
											stroke-width="2">
										</path>
										<path
											d="M 979.1666 0V 25Q 979.1666 35 969.1666 35H 576.6667Q 566.6667 35 566.6667 45V 350"
											fill="transparent"
											stroke="Blue"
											stroke-linecap="round"
											stroke-width="2">
										</path>
										<path
											d="M 979.1666 0V 25Q 979.1666 35 969.1666 35H 938.5714Q 928.5714 35 928.5714 45V 500"
											fill="transparent"
											stroke="Blue"
											stroke-linecap="round"
											stroke-width="2">
										</path>
										<path
											d="M 100 150V 165Q 100 175 110 175H 256.66666Q 266.66666 175 266.66666 185V 200"
											fill="transparent"
											stroke="Blue"
											stroke-linecap="round"
											stroke-width="2">
										</path>
										<path
											d="M 250 300V 315Q 250 325 260 325H 406.66666Q 416.66666 325 416.66666 335V 350"
											fill="transparent"
											stroke="Blue"
											stroke-linecap="round"
											stroke-width="2">
										</path>
										<path
											d="M 250 300V 315Q 250 325 260 325H 523.3333Q 533.3333 325 533.3333 335V 350"
											fill="transparent"
											stroke="Blue"
											stroke-linecap="round"
											stroke-width="2">
										</path>
										<path
											d="M 250 300V 315Q 250 325 260 325H 872.1428Q 882.1428 325 882.1428 335V 500"
											fill="transparent"
											stroke="Blue"
											stroke-linecap="round"
											stroke-width="2">
										</path>
										<path
											d="M 400 450V 470Q 400 480 410 480H 779.2857Q 789.2857 480 789.2857 490V 500"
											fill="transparent"
											stroke="Blue"
											stroke-linecap="round"
											stroke-width="2">
										</path>
										<path
											d="M 550 450V 460Q 550 470 560 470H 686.4286Q 696.4286 470 696.4286 480V 500"
											fill="transparent"
											stroke="Blue"
											stroke-linecap="round"
											stroke-width="2">
										</path>
										<path
											d="M 704.1667 850V 854.2857Q 704.1667 864.2857 694.1667 864.2857H 177.85715Q 167.85715 864.2857 167.85715 874.2857V 900"
											fill="transparent"
											stroke="Red"
											stroke-linecap="round"
											stroke-width="2">
										</path>
										<path
											d="M 758.3333 850V 858.5714Q 758.3333 868.5714 748.3333 868.5714H 345.7143Q 335.7143 868.5714 335.7143 878.5714V 900"
											fill="transparent"
											stroke="Red"
											stroke-linecap="round"
											stroke-width="2">
										</path>
										<path
											d="M 812.5 850V 867.1429Q 812.5 877.1429 802.5 877.1429H 681.4286Q 671.4286 877.1429 671.4286 887.1429V 900"
											fill="transparent"
											stroke="Red"
											stroke-linecap="round"
											stroke-width="2">
										</path>
										<path
											d="M 866.6667 850V 871.4286Q 866.6667 881.4286 856.6667 881.4286H 849.28577Q 839.28577 881.4286 839.28577 891.4286V 900"
											fill="transparent"
											stroke="Red"
											stroke-linecap="round"
											stroke-width="2">
										</path>
										<path
											d="M 920.8334 850V 875.7143Q 920.8334 885.7143 930.8334 885.7143H 997.1429Q 1007.1429 885.7143 1007.1429 895.7143V 900"
											fill="transparent"
											stroke="Red"
											stroke-linecap="round"
											stroke-width="2">
										</path>
										<path
											d="M 1075 600V 862.8571Q 1075 872.8571 1065 872.8571H 513.5714Q 503.57144 872.8571 503.57144 882.8571V 900"
											fill="transparent"
											stroke="Red"
											stroke-linecap="round"
											stroke-width="2">
										</path>
									</g>
									<g>
										<g
											transform="translate(50, 50)">
											<g>
												<rect
													fill="#FFFF80"
													height="100"
													rx="10"
													stroke="black"
													stroke-width="2"
													width="100">
												</rect>
												<text
													fill="black"
													font-size="50"
													text-anchor="middle"
													x="50"
													y="62.5">
													1
												</text>
											</g>
											<circle
												cx="50"
												cy="100"
												fill="white"
												r="4"
												stroke="black"
												stroke-width="2">
											</circle>
										</g>
										<g
											transform="translate(200, 200)">
											<g>
												<rect
													fill="#FFFF80"
													height="100"
													rx="10"
													stroke="black"
													stroke-width="2"
													width="100">
												</rect>
												<text
													fill="black"
													font-size="50"
													text-anchor="middle"
													x="50"
													y="62.5">
													add
												</text>
											</g>
											<circle
												cx="33.333332"
												cy="0"
												fill="white"
												r="4"
												stroke="black"
												stroke-width="2">
											</circle>
											<circle
												cx="66.666664"
												cy="0"
												fill="white"
												r="4"
												stroke="black"
												stroke-width="2">
											</circle>
											<circle
												cx="50"
												cy="100"
												fill="white"
												r="4"
												stroke="black"
												stroke-width="2">
											</circle>
										</g>
										<g
											transform="translate(350, 350)">
											<g>
												<rect
													fill="#FFFF80"
													height="100"
													rx="10"
													stroke="black"
													stroke-width="2"
													width="100">
												</rect>
												<text
													fill="black"
													font-size="50"
													text-anchor="middle"
													x="50"
													y="62.5">
													add
												</text>
											</g>
											<circle
												cx="33.333332"
												cy="0"
												fill="white"
												r="4"
												stroke="black"
												stroke-width="2">
											</circle>
											<circle
												cx="66.666664"
												cy="0"
												fill="white"
												r="4"
												stroke="black"
												stroke-width="2">
											</circle>
											<circle
												cx="50"
												cy="100"
												fill="white"
												r="4"
												stroke="black"
												stroke-width="2">
											</circle>
										</g>
										<g
											transform="translate(500, 350)">
											<g>
												<rect
													fill="#FFFF80"
													height="100"
													rx="10"
													stroke="black"
													stroke-width="2"
													width="100">
												</rect>
												<text
													fill="black"
													font-size="50"
													text-anchor="middle"
													x="50"
													y="62.5">
													eq
												</text>
											</g>
											<circle
												cx="33.333332"
												cy="0"
												fill="white"
												r="4"
												stroke="black"
												stroke-width="2">
											</circle>
											<circle
												cx="66.666664"
												cy="0"
												fill="white"
												r="4"
												stroke="black"
												stroke-width="2">
											</circle>
											<circle
												cx="50"
												cy="100"
												fill="white"
												r="4"
												stroke="black"
												stroke-width="2">
											</circle>
										</g>
										<g
											transform="translate(650, 500)">
											<rect
												fill="#80FF80"
												height="350"
												rx="10"
												stroke="black"
												stroke-width="2"
												width="325">
											</rect>
											<text
												fill="black"
												font-size="50"
												x="25"
												y="50">
												if
											</text>
											<g>
												<g
													transform="translate(25, 125)">
													<rect
														fill="white"
														height="200"
														rx="10"
														stroke="black"
														stroke-width="2"
														width="200">
													</rect>
													<g>
														<path
															d="M 33.333332 0V 155Q 33.333332 165 33.333332 165H 33.333332Q 33.333332 165 33.333332 175V 200"
															fill="transparent"
															stroke="Red"
															stroke-linecap="round"
															stroke-width="2">
														</path>
														<path
															d="M 66.666664 0V 160Q 66.666664 170 66.666664 170H 66.666664Q 66.666664 170 66.666664 180V 200"
															fill="transparent"
															stroke="Red"
															stroke-linecap="round"
															stroke-width="2">
														</path>
														<path
															d="M 133.33333 0V 170Q 133.33333 180 133.33333 180H 133.33333Q 133.33333 180 133.33333 190V 200"
															fill="transparent"
															stroke="Red"
															stroke-linecap="round"
															stroke-width="2">
														</path>
														<path
															d="M 166.66666 0V 175Q 166.66666 185 166.66666 185H 166.66666Q 166.66666 185 166.66666 195V 200"
															fill="transparent"
															stroke="Red"
															stroke-linecap="round"
															stroke-width="2">
														</path>
														<path
															d="M 100 150V 165Q 100 175 100 175H 100Q 100 175 100 185V 200"
															fill="transparent"
															stroke="Red"
															stroke-linecap="round"
															stroke-width="2">
														</path>
													</g>
													<g>
														<g
															transform="translate(50, 50)">
															<g>
																<rect
																	fill="#FFFF80"
																	height="100"
																	rx="10"
																	stroke="black"
																	stroke-width="2"
																	width="100">
																</rect>
																<text
																	fill="black"
																	font-size="50"
																	text-anchor="middle"
																	x="50"
																	y="62.5">
																	5
																</text>
															</g>
															<circle
																cx="50"
																cy="100"
																fill="white"
																r="4"
																stroke="black"
																stroke-width="2">
															</circle>
														</g>
													</g>
													<g>
														<circle
															cx="33.333332"
															cy="0"
															fill="white"
															r="4"
															stroke="black"
															stroke-width="2">
														</circle>
														<circle
															cx="66.666664"
															cy="0"
															fill="white"
															r="4"
															stroke="black"
															stroke-width="2">
														</circle>
														<circle
															cx="100"
															cy="0"
															fill="white"
															r="4"
															stroke="black"
															stroke-width="2">
														</circle>
														<circle
															cx="133.33333"
															cy="0"
															fill="white"
															r="4"
															stroke="black"
															stroke-width="2">
														</circle>
														<circle
															cx="166.66666"
															cy="0"
															fill="white"
															r="4"
															stroke="black"
															stroke-width="2">
														</circle>
													</g>
													<g>
														<circle
															cx="33.333332"
															cy="200"
															fill="white"
															r="4"
															stroke="black"
															stroke-width="2">
														</circle>
														<circle
															cx="66.666664"
															cy="200"
															fill="white"
															r="4"
															stroke="black"
															stroke-width="2">
														</circle>
														<circle
															cx="100"
															cy="200"
															fill="white"
															r="4"
															stroke="black"
															stroke-width="2">
														</circle>
														<circle
															cx="133.33333"
															cy="200"
															fill="white"
															r="4"
															stroke="black"
															stroke-width="2">
														</circle>
														<circle
															cx="166.66666"
															cy="200"
															fill="white"
															r="4"
															stroke="black"
															stroke-width="2">
														</circle>
													</g>
												</g>
												<text
													fill="black"
													font-size="50"
													text-anchor="middle"
													x="125"
													y="100">
													true
												</text>
											</g>
											<g>
												<g
													transform="translate(250, 125)">
													<rect
														fill="white"
														height="50"
														rx="10"
														stroke="black"
														stroke-width="2"
														width="50">
													</rect>
													<g>
														<path
															d="M 8.333333 0V 5Q 8.333333 15 8.333333 15H 8.333333Q 8.333333 15 8.333333 25V 50"
															fill="transparent"
															stroke="Red"
															stroke-linecap="round"
															stroke-width="2">
														</path>
														<path
															d="M 16.666666 0V 10Q 16.666666 20 16.666666 20H 16.666666Q 16.666666 20 16.666666 30V 50"
															fill="transparent"
															stroke="Red"
															stroke-linecap="round"
															stroke-width="2">
														</path>
														<path
															d="M 25 0V 15Q 25 25 25 25H 25Q 25 25 25 35V 50"
															fill="transparent"
															stroke="Red"
															stroke-linecap="round"
															stroke-width="2">
														</path>
														<path
															d="M 33.333332 0V 20Q 33.333332 30 33.333332 30H 33.333332Q 33.333332 30 33.333332 40V 50"
															fill="transparent"
															stroke="Red"
															stroke-linecap="round"
															stroke-width="2">
														</path>
														<path
															d="M 41.666664 0V 25Q 41.666664 35 41.666664 35H 41.666664Q 41.666664 35 41.666664 45V 50"
															fill="transparent"
															stroke="Red"
															stroke-linecap="round"
															stroke-width="2">
														</path>
													</g>
													<g>
													</g>
													<g>
														<circle
															cx="8.333333"
															cy="0"
															fill="white"
															r="4"
															stroke="black"
															stroke-width="2">
														</circle>
														<circle
															cx="16.666666"
															cy="0"
															fill="white"
															r="4"
															stroke="black"
															stroke-width="2">
														</circle>
														<circle
															cx="25"
															cy="0"
															fill="white"
															r="4"
															stroke="black"
															stroke-width="2">
														</circle>
														<circle
															cx="33.333332"
															cy="0"
															fill="white"
															r="4"
															stroke="black"
															stroke-width="2">
														</circle>
														<circle
															cx="41.666664"
															cy="0"
															fill="white"
															r="4"
															stroke="black"
															stroke-width="2">
														</circle>
													</g>
													<g>
														<circle
															cx="8.333333"
															cy="50"
															fill="white"
															r="4"
															stroke="black"
															stroke-width="2">
														</circle>
														<circle
															cx="16.666666"
															cy="50"
															fill="white"
															r="4"
															stroke="black"
															stroke-width="2">
														</circle>
														<circle
															cx="25"
															cy="50"
															fill="white"
															r="4"
															stroke="black"
															stroke-width="2">
														</circle>
														<circle
															cx="33.333332"
															cy="50"
															fill="white"
															r="4"
															stroke="black"
															stroke-width="2">
														</circle>
														<circle
															cx="41.666664"
															cy="50"
															fill="white"
															r="4"
															stroke="black"
															stroke-width="2">
														</circle>
													</g>
												</g>
												<text
													fill="black"
													font-size="50"
													text-anchor="middle"
													x="275"
													y="100">
													false
												</text>
											</g>
											<circle
												cx="46.42857"
												cy="0"
												fill="black"
												r="4"
												stroke="black"
												stroke-width="2">
											</circle>
											<circle
												cx="92.85714"
												cy="0"
												fill="white"
												r="4"
												stroke="black"
												stroke-width="2">
											</circle>
											<circle
												cx="139.2857"
												cy="0"
												fill="white"
												r="4"
												stroke="black"
												stroke-width="2">
											</circle>
											<circle
												cx="185.71428"
												cy="0"
												fill="white"
												r="4"
												stroke="black"
												stroke-width="2">
											</circle>
											<circle
												cx="232.14285"
												cy="0"
												fill="white"
												r="4"
												stroke="black"
												stroke-width="2">
											</circle>
											<circle
												cx="278.5714"
												cy="0"
												fill="white"
												r="4"
												stroke="black"
												stroke-width="2">
											</circle>
											<circle
												cx="54.166668"
												cy="350"
												fill="white"
												r="4"
												stroke="black"
												stroke-width="2">
											</circle>
											<circle
												cx="108.333336"
												cy="350"
												fill="white"
												r="4"
												stroke="black"
												stroke-width="2">
											</circle>
											<circle
												cx="162.5"
												cy="350"
												fill="white"
												r="4"
												stroke="black"
												stroke-width="2">
											</circle>
											<circle
												cx="216.66667"
												cy="350"
												fill="white"
												r="4"
												stroke="black"
												stroke-width="2">
											</circle>
											<circle
												cx="270.83334"
												cy="350"
												fill="white"
												r="4"
												stroke="black"
												stroke-width="2">
											</circle>
										</g>
										<g
											transform="translate(1025, 500)">
											<g>
												<rect
													fill="#FFFF80"
													height="100"
													rx="10"
													stroke="black"
													stroke-width="2"
													width="100">
												</rect>
												<text
													fill="black"
													font-size="50"
													text-anchor="middle"
													x="50"
													y="62.5">
													true
												</text>
											</g>
											<circle
												cx="50"
												cy="100"
												fill="white"
												r="4"
												stroke="black"
												stroke-width="2">
											</circle>
										</g>
									</g>
									<g>
										<circle
											cx="195.83333"
											cy="0"
											fill="white"
											r="4"
											stroke="black"
											stroke-width="2">
										</circle>
										<circle
											cx="391.66666"
											cy="0"
											fill="white"
											r="4"
											stroke="black"
											stroke-width="2">
										</circle>
										<circle
											cx="587.5"
											cy="0"
											fill="white"
											r="4"
											stroke="black"
											stroke-width="2">
										</circle>
										<circle
											cx="783.3333"
											cy="0"
											fill="white"
											r="4"
											stroke="black"
											stroke-width="2">
										</circle>
										<circle
											cx="979.1666"
											cy="0"
											fill="white"
											r="4"
											stroke="black"
											stroke-width="2">
										</circle>
									</g>
									<g>
										<circle
											cx="167.85715"
											cy="900"
											fill="white"
											r="4"
											stroke="black"
											stroke-width="2">
										</circle>
										<circle
											cx="335.7143"
											cy="900"
											fill="white"
											r="4"
											stroke="black"
											stroke-width="2">
										</circle>
										<circle
											cx="503.57144"
											cy="900"
											fill="white"
											r="4"
											stroke="black"
											stroke-width="2">
										</circle>
										<circle
											cx="671.4286"
											cy="900"
											fill="white"
											r="4"
											stroke="black"
											stroke-width="2">
										</circle>
										<circle
											cx="839.28577"
											cy="900"
											fill="white"
											r="4"
											stroke="black"
											stroke-width="2">
										</circle>
										<circle
											cx="1007.1429"
											cy="900"
											fill="white"
											r="4"
											stroke="black"
											stroke-width="2">
										</circle>
									</g>
								</g>
								<text
									fill="black"
									font-size="50"
									text-anchor="middle"
									x="612.5"
									y="100">
									true
								</text>
							</g>
							<g>
								<g
									transform="translate(1225, 125)">
									<rect
										fill="white"
										height="200"
										rx="10"
										stroke="black"
										stroke-width="2"
										width="200">
									</rect>
									<g>
										<path
											d="M 33.333332 0V 154.28572Q 33.333332 164.28572 30.952381 164.28572H 30.952381Q 28.571428 164.28572 28.571428 174.28572V 200"
											fill="transparent"
											stroke="Red"
											stroke-linecap="round"
											stroke-width="2">
										</path>
										<path
											d="M 66.666664 0V 158.57143Q 66.666664 168.57143 61.904762 168.57143H 61.904762Q 57.142857 168.57143 57.142857 178.57143V 200"
											fill="transparent"
											stroke="Red"
											stroke-linecap="round"
											stroke-width="2">
										</path>
										<path
											d="M 100 0V 167.14285Q 100 177.14285 107.14285 177.14285H 107.14285Q 114.28571 177.14285 114.28571 187.14285V 200"
											fill="transparent"
											stroke="Red"
											stroke-linecap="round"
											stroke-width="2">
										</path>
										<path
											d="M 133.33333 0V 171.42857Q 133.33333 181.42857 138.09525 181.42857H 138.09525Q 142.85715 181.42857 142.85715 191.42857V 200"
											fill="transparent"
											stroke="Red"
											stroke-linecap="round"
											stroke-width="2">
										</path>
										<path
											d="M 166.66666 0V 175.71428Q 166.66666 185.71428 169.0476 185.71428H 169.0476Q 171.42857 185.71428 171.42857 195.71428V 200"
											fill="transparent"
											stroke="Red"
											stroke-linecap="round"
											stroke-width="2">
										</path>
										<path
											d="M 100 150V 162.85715Q 100 172.85715 92.85715 172.85715H 92.85715Q 85.71429 172.85715 85.71429 182.85715V 200"
											fill="transparent"
											stroke="Red"
											stroke-linecap="round"
											stroke-width="2">
										</path>
									</g>
									<g>
										<g
											transform="translate(50, 50)">
											<g>
												<rect
													fill="#FFFF80"
													height="100"
													rx="10"
													stroke="black"
													stroke-width="2"
													width="100">
												</rect>
												<text
													fill="black"
													font-size="50"
													text-anchor="middle"
													x="50"
													y="62.5">
													false
												</text>
											</g>
											<circle
												cx="50"
												cy="100"
												fill="white"
												r="4"
												stroke="black"
												stroke-width="2">
											</circle>
										</g>
									</g>
									<g>
										<circle
											cx="33.333332"
											cy="0"
											fill="white"
											r="4"
											stroke="black"
											stroke-width="2">
										</circle>
										<circle
											cx="66.666664"
											cy="0"
											fill="white"
											r="4"
											stroke="black"
											stroke-width="2">
										</circle>
										<circle
											cx="100"
											cy="0"
											fill="white"
											r="4"
											stroke="black"
											stroke-width="2">
										</circle>
										<circle
											cx="133.33333"
											cy="0"
											fill="white"
											r="4"
											stroke="black"
											stroke-width="2">
										</circle>
										<circle
											cx="166.66666"
											cy="0"
											fill="white"
											r="4"
											stroke="black"
											stroke-width="2">
										</circle>
									</g>
									<g>
										<circle
											cx="28.571428"
											cy="200"
											fill="white"
											r="4"
											stroke="black"
											stroke-width="2">
										</circle>
										<circle
											cx="57.142857"
											cy="200"
											fill="white"
											r="4"
											stroke="black"
											stroke-width="2">
										</circle>
										<circle
											cx="85.71429"
											cy="200"
											fill="white"
											r="4"
											stroke="black"
											stroke-width="2">
										</circle>
										<circle
											cx="114.28571"
											cy="200"
											fill="white"
											r="4"
											stroke="black"
											stroke-width="2">
										</circle>
										<circle
											cx="142.85715"
											cy="200"
											fill="white"
											r="4"
											stroke="black"
											stroke-width="2">
										</circle>
										<circle
											cx="171.42857"
											cy="200"
											fill="white"
											r="4"
											stroke="black"
											stroke-width="2">
										</circle>
									</g>
								</g>
								<text
									fill="black"
									font-size="50"
									text-anchor="middle"
									x="1325"
									y="100">
									false
								</text>
							</g>
							<circle
								cx="207.14285"
								cy="0"
								fill="black"
								r="4"
								stroke="black"
								stroke-width="2">
							</circle>
							<circle
								cx="414.2857"
								cy="0"
								fill="white"
								r="4"
								stroke="black"
								stroke-width="2">
							</circle>
							<circle
								cx="621.4286"
								cy="0"
								fill="white"
								r="4"
								stroke="black"
								stroke-width="2">
							</circle>
							<circle
								cx="828.5714"
								cy="0"
								fill="white"
								r="4"
								stroke="black"
								stroke-width="2">
							</circle>
							<circle
								cx="1035.7142"
								cy="0"
								fill="white"
								r="4"
								stroke="black"
								stroke-width="2">
							</circle>
							<circle
								cx="1242.8572"
								cy="0"
								fill="white"
								r="4"
								stroke="black"
								stroke-width="2">
							</circle>
							<circle
								cx="207.14285"
								cy="1050"
								fill="white"
								r="4"
								stroke="black"
								stroke-width="2">
							</circle>
							<circle
								cx="414.2857"
								cy="1050"
								fill="white"
								r="4"
								stroke="black"
								stroke-width="2">
							</circle>
							<circle
								cx="621.4286"
								cy="1050"
								fill="white"
								r="4"
								stroke="black"
								stroke-width="2">
							</circle>
							<circle
								cx="828.5714"
								cy="1050"
								fill="white"
								r="4"
								stroke="black"
								stroke-width="2">
							</circle>
							<circle
								cx="1035.7142"
								cy="1050"
								fill="white"
								r="4"
								stroke="black"
								stroke-width="2">
							</circle>
							<circle
								cx="1242.8572"
								cy="1050"
								fill="white"
								r="4"
								stroke="black"
								stroke-width="2">
							</circle>
						</g>
					</g>
					<g>
						<circle
							cx="333.33334"
							cy="0"
							fill="white"
							r="4"
							stroke="black"
							stroke-width="2">
						</circle>
						<circle
							cx="666.6667"
							cy="0"
							fill="white"
							r="4"
							stroke="black"
							stroke-width="2">
						</circle>
						<circle
							cx="1000"
							cy="0"
							fill="white"
							r="4"
							stroke="black"
							stroke-width="2">
						</circle>
						<circle
							cx="1333.3334"
							cy="0"
							fill="white"
							r="4"
							stroke="black"
							stroke-width="2">
						</circle>
						<circle
							cx="1666.6667"
							cy="0"
							fill="white"
							r="4"
							stroke="black"
							stroke-width="2">
						</circle>
					</g>
					<g>
						<circle
							cx="285.7143"
							cy="1600"
							fill="black"
							r="4"
							stroke="black"
							stroke-width="2">
						</circle>
						<circle
							cx="571.4286"
							cy="1600"
							fill="white"
							r="4"
							stroke="black"
							stroke-width="2">
						</circle>
						<circle
							cx="857.1429"
							cy="1600"
							fill="white"
							r="4"
							stroke="black"
							stroke-width="2">
						</circle>
						<circle
							cx="1142.8572"
							cy="1600"
							fill="white"
							r="4"
							stroke="black"
							stroke-width="2">
						</circle>
						<circle
							cx="1428.5715"
							cy="1600"
							fill="white"
							r="4"
							stroke="black"
							stroke-width="2">
						</circle>
						<circle
							cx="1714.2858"
							cy="1600"
							fill="white"
							r="4"
							stroke="black"
							stroke-width="2">
						</circle>
					</g>
				</g>
				<circle
					cx="358.33334"
					cy="0"
					fill="white"
					r="4"
					stroke="black"
					stroke-width="2">
				</circle>
				<circle
					cx="691.6667"
					cy="0"
					fill="white"
					r="4"
					stroke="black"
					stroke-width="2">
				</circle>
				<circle
					cx="1025"
					cy="0"
					fill="white"
					r="4"
					stroke="black"
					stroke-width="2">
				</circle>
				<circle
					cx="1358.3334"
					cy="0"
					fill="white"
					r="4"
					stroke="black"
					stroke-width="2">
				</circle>
				<circle
					cx="1691.6667"
					cy="0"
					fill="white"
					r="4"
					stroke="black"
					stroke-width="2">
				</circle>
				<circle
					cx="596.4286"
					cy="1700"
					fill="white"
					r="4"
					stroke="black"
					stroke-width="2">
				</circle>
				<circle
					cx="882.1429"
					cy="1700"
					fill="white"
					r="4"
					stroke="black"
					stroke-width="2">
				</circle>
				<circle
					cx="1167.8572"
					cy="1700"
					fill="white"
					r="4"
					stroke="black"
					stroke-width="2">
				</circle>
				<circle
					cx="1453.5715"
					cy="1700"
					fill="white"
					r="4"
					stroke="black"
					stroke-width="2">
				</circle>
				<circle
					cx="1739.2858"
					cy="1700"
					fill="white"
					r="4"
					stroke="black"
					stroke-width="2">
				</circle>
			</g>
			<g
				transform="translate(2600, 1950)">
				<g>
					<rect
						fill="#FFFF80"
						height="100"
						rx="10"
						stroke="black"
						stroke-width="2"
						width="100">
					</rect>
					<text
						fill="black"
						font-size="50"
						text-anchor="middle"
						x="50"
						y="62.5">
						print
					</text>
				</g>
				<circle
					cx="33.333332"
					cy="0"
					fill="white"
					r="4"
					stroke="black"
					stroke-width="2">
				</circle>
				<circle
					cx="66.666664"
					cy="0"
					fill="white"
					r="4"
					stroke="black"
					stroke-width="2">
				</circle>
				<circle
					cx="50"
					cy="100"
					fill="white"
					r="4"
					stroke="black"
					stroke-width="2">
				</circle>
			</g>
		</g>
		<g>
			<circle
				cx="916.6667"
				cy="0"
				fill="white"
				r="4"
				stroke="black"
				stroke-width="2">
			</circle>
			<circle
				cx="1833.3334"
				cy="0"
				fill="white"
				r="4"
				stroke="black"
				stroke-width="2">
			</circle>
		</g>
		<g>
			<circle
				cx="1375"
				cy="2100"
				fill="white"
				r="4"
				stroke="black"
				stroke-width="2">
			</circle>
		</g>
	</g>
</svg>

