<svg
	height="500"
	version="1.1"
	width="800"
	xmlns="http://www.w3.org/2000/svg">
	<g
		transform="translate(0, 0)">
		<rect
			fill="white"
			height="500"
			rx="10"
			stroke="black"
			stroke-width="2"
			width="800">
		</rect>
		<g>
			<path
				d="M 266.66666 0V 10Q 266.66666 20 256.66666 20H 93.33333Q 83.33333 20 83.33333 30V 50"
				fill="transparent"
				stroke="ForestGreen"
				stroke-linecap="round"
				stroke-width="2">
			</path>
			<path
				d="M 266.66666 0V 10Q 266.66666 20 256.66666 20H 126.666664Q 116.666664 20 116.666664 30V 50"
				fill="transparent"
				stroke="ForestGreen"
				stroke-linecap="round"
				stroke-width="2">
			</path>
			<path
				d="M 266.66666 0V 10Q 266.66666 20 276.66666 20H 390Q 400 20 400 30V 200"
				fill="transparent"
				stroke="ForestGreen"
				stroke-linecap="round"
				stroke-width="2">
			</path>
			<path
				d="M 266.66666 0V 10Q 266.66666 20 276.66666 20H 523.3333Q 533.3333 20 533.3333 30V 200"
				fill="transparent"
				stroke="ForestGreen"
				stroke-linecap="round"
				stroke-width="2">
			</path>
			<path
				d="M 533.3333 0V 20Q 533.3333 30 543.3333 30H 556.6667Q 566.6667 30 566.6667 40V 200"
				fill="transparent"
				stroke="Maroon"
				stroke-linecap="round"
				stroke-width="2">
			</path>
			<path
				d="M 100 150V 170Q 100 180 110 180H 365Q 375 180 375 190V 200"
				fill="transparent"
				stroke="Teal"
				stroke-linecap="round"
				stroke-width="2">
			</path>
			<path
				d="M 250 150V 160Q 250 170 260 170H 415Q 425 170 425 180V 200"
				fill="transparent"
				stroke="Purple"
				stroke-linecap="round"
				stroke-width="2">
			</path>
			<path
				d="M 400 300V 320Q 400 330 410 330H 673.3333Q 683.3333 330 683.3333 340V 350"
				fill="transparent"
				stroke="Teal"
				stroke-linecap="round"
				stroke-width="2">
			</path>
			<path
				d="M 550 300V 310Q 550 320 560 320H 706.6667Q 716.6667 320 716.6667 330V 350"
				fill="transparent"
				stroke="SlateBlue"
				stroke-linecap="round"
				stroke-width="2">
			</path>
			<path
				d="M 700 450V 465Q 700 475 690 475H 410Q 400 475 400 485V 500"
				fill="transparent"
				stroke="Black"
				stroke-linecap="round"
				stroke-width="2">
			</path>
		</g>
		<g>
			<g
				transform="translate(50, 50)">
				<g>
					<rect
						fill="#FFFF80"
						height="100"
						rx="10"
						stroke="black"
						stroke-width="2"
						width="100">
					</rect>
					<text
						fill="black"
						font-size="50"
						text-anchor="middle"
						x="50"
						y="62.5">
						eq
					</text>
				</g>
				<circle
					cx="33.333332"
					cy="0"
					fill="white"
					r="4"
					stroke="black"
					stroke-width="2">
				</circle>
				<circle
					cx="66.666664"
					cy="0"
					fill="white"
					r="4"
					stroke="black"
					stroke-width="2">
				</circle>
				<circle
					cx="50"
					cy="100"
					fill="white"
					r="4"
					stroke="black"
					stroke-width="2">
				</circle>
			</g>
			<g
				transform="translate(200, 50)">
				<g>
					<rect
						fill="#FFFF80"
						height="100"
						rx="10"
						stroke="black"
						stroke-width="2"
						width="100">
					</rect>
					<text
						fill="black"
						font-size="50"
						text-anchor="middle"
						x="50"
						y="62.5">
						9
					</text>
				</g>
				<circle
					cx="50"
					cy="100"
					fill="white"
					r="4"
					stroke="black"
					stroke-width="2">
				</circle>
			</g>
			<g
				transform="translate(350, 200)">
				<g>
					<rect
						fill="#FFFF80"
						height="100"
						rx="10"
						stroke="black"
						stroke-width="2"
						width="100">
					</rect>
					<text
						fill="black"
						font-size="50"
						text-anchor="middle"
						x="50"
						y="62.5">
						select
					</text>
				</g>
				<circle
					cx="25"
					cy="0"
					fill="white"
					r="4"
					stroke="black"
					stroke-width="2">
				</circle>
				<circle
					cx="50"
					cy="0"
					fill="white"
					r="4"
					stroke="black"
					stroke-width="2">
				</circle>
				<circle
					cx="75"
					cy="0"
					fill="white"
					r="4"
					stroke="black"
					stroke-width="2">
				</circle>
				<circle
					cx="50"
					cy="100"
					fill="white"
					r="4"
					stroke="black"
					stroke-width="2">
				</circle>
			</g>
			<g
				transform="translate(500, 200)">
				<g>
					<rect
						fill="#FFFF80"
						height="100"
						rx="10"
						stroke="black"
						stroke-width="2"
						width="100">
					</rect>
					<text
						fill="black"
						font-size="50"
						text-anchor="middle"
						x="50"
						y="62.5">
						print
					</text>
				</g>
				<circle
					cx="33.333332"
					cy="0"
					fill="white"
					r="4"
					stroke="black"
					stroke-width="2">
				</circle>
				<circle
					cx="66.666664"
					cy="0"
					fill="white"
					r="4"
					stroke="black"
					stroke-width="2">
				</circle>
				<circle
					cx="50"
					cy="100"
					fill="white"
					r="4"
					stroke="black"
					stroke-width="2">
				</circle>
			</g>
			<g
				transform="translate(650, 350)">
				<g>
					<rect
						fill="#FFFF80"
						height="100"
						rx="10"
						stroke="black"
						stroke-width="2"
						width="100">
					</rect>
					<text
						fill="black"
						font-size="50"
						text-anchor="middle"
						x="50"
						y="62.5">
						print
					</text>
				</g>
				<circle
					cx="33.333332"
					cy="0"
					fill="white"
					r="4"
					stroke="black"
					stroke-width="2">
				</circle>
				<circle
					cx="66.666664"
					cy="0"
					fill="white"
					r="4"
					stroke="black"
					stroke-width="2">
				</circle>
				<circle
					cx="50"
					cy="100"
					fill="white"
					r="4"
					stroke="black"
					stroke-width="2">
				</circle>
			</g>
		</g>
		<g>
			<circle
				cx="266.66666"
				cy="0"
				fill="white"
				r="4"
				stroke="black"
				stroke-width="2">
			</circle>
			<circle
				cx="533.3333"
				cy="0"
				fill="white"
				r="4"
				stroke="black"
				stroke-width="2">
			</circle>
		</g>
		<g>
			<circle
				cx="400"
				cy="500"
				fill="white"
				r="4"
				stroke="black"
				stroke-width="2">
			</circle>
		</g>
	</g>
</svg>

