<svg
	height="1200"
	version="1.1"
	width="1175"
	xmlns="http://www.w3.org/2000/svg">
	<g
		transform="translate(0, 0)">
		<rect
			fill="white"
			height="1200"
			rx="10"
			stroke="black"
			stroke-width="2"
			width="1175">
		</rect>
		<g>
			<path
				d="M 391.66666 0V 10Q 391.66666 20 381.66666 20H 243.33333Q 233.33333 20 233.33333 30V 200"
				fill="transparent"
				stroke="ForestGreen"
				stroke-linecap="round"
				stroke-width="2">
			</path>
			<path
				d="M 391.66666 0V 10Q 391.66666 20 401.66666 20H 696.25Q 706.25 20 706.25 30V 350"
				fill="transparent"
				stroke="ForestGreen"
				stroke-linecap="round"
				stroke-width="2">
			</path>
			<path
				d="M 783.3333 0V 20Q 783.3333 30 773.3333 30H 597.5Q 587.5 30 587.5 40V 350"
				fill="transparent"
				stroke="Maroon"
				stroke-linecap="round"
				stroke-width="2">
			</path>
			<path
				d="M 100 150V 165Q 100 175 110 175H 256.66666Q 266.66666 175 266.66666 185V 200"
				fill="transparent"
				stroke="SlateBlue"
				stroke-linecap="round"
				stroke-width="2">
			</path>
			<path
				d="M 250 300V 315Q 250 325 260 325H 458.75Q 468.75 325 468.75 335V 350"
				fill="transparent"
				stroke="Teal"
				stroke-linecap="round"
				stroke-width="2">
			</path>
			<path
				d="M 468.75 850V 857.5Q 468.75 867.5 478.75 867.5H 931.6667Q 941.6667 867.5 941.6667 877.5V 900"
				fill="transparent"
				stroke="SlateBlue"
				stroke-linecap="round"
				stroke-width="2">
			</path>
			<path
				d="M 587.5 850V 865Q 587.5 875 597.5 875H 1048.3334Q 1058.3334 875 1058.3334 885V 1050"
				fill="transparent"
				stroke="Teal"
				stroke-linecap="round"
				stroke-width="2">
			</path>
			<path
				d="M 706.25 850V 872.5Q 706.25 882.5 716.25 882.5H 898.3333Q 908.3333 882.5 908.3333 892.5V 900"
				fill="transparent"
				stroke="Teal"
				stroke-linecap="round"
				stroke-width="2">
			</path>
			<path
				d="M 925 1000V 1015Q 925 1025 935 1025H 1081.6666Q 1091.6666 1025 1091.6666 1035V 1050"
				fill="transparent"
				stroke="SlateBlue"
				stroke-linecap="round"
				stroke-width="2">
			</path>
			<path
				d="M 1075 1150V 1165Q 1075 1175 1065 1175H 597.5Q 587.5 1175 587.5 1185V 1200"
				fill="transparent"
				stroke="Black"
				stroke-linecap="round"
				stroke-width="2">
			</path>
		</g>
		<g>
			<g
				transform="translate(50, 50)">
				<g>
					<rect
						fill="#FFFF80"
						height="100"
						rx="10"
						stroke="black"
						stroke-width="2"
						width="100">
					</rect>
					<text
						fill="black"
						font-size="50"
						text-anchor="middle"
						x="50"
						y="62.5">
						3
					</text>
				</g>
				<circle
					cx="50"
					cy="100"
					fill="white"
					r="4"
					stroke="black"
					stroke-width="2">
				</circle>
			</g>
			<g
				transform="translate(200, 200)">
				<g>
					<rect
						fill="#FFFF80"
						height="100"
						rx="10"
						stroke="black"
						stroke-width="2"
						width="100">
					</rect>
					<text
						fill="black"
						font-size="50"
						text-anchor="middle"
						x="50"
						y="62.5">
						eq
					</text>
				</g>
				<circle
					cx="33.333332"
					cy="0"
					fill="white"
					r="4"
					stroke="black"
					stroke-width="2">
				</circle>
				<circle
					cx="66.666664"
					cy="0"
					fill="white"
					r="4"
					stroke="black"
					stroke-width="2">
				</circle>
				<circle
					cx="50"
					cy="100"
					fill="white"
					r="4"
					stroke="black"
					stroke-width="2">
				</circle>
			</g>
			<g
				transform="translate(350, 350)">
				<rect
					fill="#80FF80"
					height="500"
					rx="10"
					stroke="black"
					stroke-width="2"
					width="475">
				</rect>
				<text
					fill="black"
					font-size="50"
					x="25"
					y="50">
					if
				</text>
				<g>
					<g
						transform="translate(25, 125)">
						<rect
							fill="white"
							height="50"
							rx="10"
							stroke="black"
							stroke-width="2"
							width="50">
						</rect>
						<g>
							<path
								d="M 16.666666 0V 7.5Q 16.666666 17.5 14.583333 17.5H 14.583333Q 12.5 17.5 12.5 27.5V 50"
								fill="transparent"
								stroke="Maroon"
								stroke-linecap="round"
								stroke-width="2">
							</path>
							<path
								d="M 33.333332 0V 15Q 33.333332 25 29.166666 25H 29.166666Q 25 25 25 35V 50"
								fill="transparent"
								stroke="ForestGreen"
								stroke-linecap="round"
								stroke-width="2">
							</path>
							<path
								d="M 33.333332 0V 22.5Q 33.333332 32.5 35.416664 32.5H 35.416664Q 37.5 32.5 37.5 42.5V 50"
								fill="transparent"
								stroke="ForestGreen"
								stroke-linecap="round"
								stroke-width="2">
							</path>
						</g>
						<g>
						</g>
						<g>
							<circle
								cx="16.666666"
								cy="0"
								fill="white"
								r="4"
								stroke="black"
								stroke-width="2">
							</circle>
							<circle
								cx="33.333332"
								cy="0"
								fill="white"
								r="4"
								stroke="black"
								stroke-width="2">
							</circle>
						</g>
						<g>
							<circle
								cx="12.5"
								cy="50"
								fill="white"
								r="4"
								stroke="black"
								stroke-width="2">
							</circle>
							<circle
								cx="25"
								cy="50"
								fill="white"
								r="4"
								stroke="black"
								stroke-width="2">
							</circle>
							<circle
								cx="37.5"
								cy="50"
								fill="white"
								r="4"
								stroke="black"
								stroke-width="2">
							</circle>
						</g>
					</g>
					<text
						fill="black"
						font-size="50"
						text-anchor="middle"
						x="50"
						y="100">
						true
					</text>
				</g>
				<g>
					<g
						transform="translate(100, 125)">
						<rect
							fill="white"
							height="350"
							rx="10"
							stroke="black"
							stroke-width="2"
							width="350">
						</rect>
						<g>
							<path
								d="M 116.666664 0V 307.5Q 116.666664 317.5 106.666664 317.5H 97.5Q 87.5 317.5 87.5 327.5V 350"
								fill="transparent"
								stroke="Maroon"
								stroke-linecap="round"
								stroke-width="2">
							</path>
							<path
								d="M 233.33333 0V 322.5Q 233.33333 332.5 243.33333 332.5H 252.5Q 262.5 332.5 262.5 342.5V 350"
								fill="transparent"
								stroke="ForestGreen"
								stroke-linecap="round"
								stroke-width="2">
							</path>
							<path
								d="M 233.33333 0V 20Q 233.33333 30 233.33333 30H 233.33333Q 233.33333 30 233.33333 40V 200"
								fill="transparent"
								stroke="ForestGreen"
								stroke-linecap="round"
								stroke-width="2">
							</path>
							<path
								d="M 100 150V 165Q 100 175 110 175H 256.66666Q 266.66666 175 266.66666 185V 200"
								fill="transparent"
								stroke="SlateBlue"
								stroke-linecap="round"
								stroke-width="2">
							</path>
							<path
								d="M 250 300V 315Q 250 325 240 325H 185Q 175 325 175 335V 350"
								fill="transparent"
								stroke="DarkOrange"
								stroke-linecap="round"
								stroke-width="2">
							</path>
						</g>
						<g>
							<g
								transform="translate(50, 50)">
								<g>
									<rect
										fill="#FFFF80"
										height="100"
										rx="10"
										stroke="black"
										stroke-width="2"
										width="100">
									</rect>
									<text
										fill="black"
										font-size="50"
										text-anchor="middle"
										x="50"
										y="62.5">
										3
									</text>
								</g>
								<circle
									cx="50"
									cy="100"
									fill="white"
									r="4"
									stroke="black"
									stroke-width="2">
								</circle>
							</g>
							<g
								transform="translate(200, 200)">
								<g>
									<rect
										fill="#FFFF80"
										height="100"
										rx="10"
										stroke="black"
										stroke-width="2"
										width="100">
									</rect>
									<text
										fill="black"
										font-size="50"
										text-anchor="middle"
										x="50"
										y="62.5">
										mul
									</text>
								</g>
								<circle
									cx="33.333332"
									cy="0"
									fill="white"
									r="4"
									stroke="black"
									stroke-width="2">
								</circle>
								<circle
									cx="66.666664"
									cy="0"
									fill="white"
									r="4"
									stroke="black"
									stroke-width="2">
								</circle>
								<circle
									cx="50"
									cy="100"
									fill="white"
									r="4"
									stroke="black"
									stroke-width="2">
								</circle>
							</g>
						</g>
						<g>
							<circle
								cx="116.666664"
								cy="0"
								fill="white"
								r="4"
								stroke="black"
								stroke-width="2">
							</circle>
							<circle
								cx="233.33333"
								cy="0"
								fill="white"
								r="4"
								stroke="black"
								stroke-width="2">
							</circle>
						</g>
						<g>
							<circle
								cx="87.5"
								cy="350"
								fill="white"
								r="4"
								stroke="black"
								stroke-width="2">
							</circle>
							<circle
								cx="175"
								cy="350"
								fill="white"
								r="4"
								stroke="black"
								stroke-width="2">
							</circle>
							<circle
								cx="262.5"
								cy="350"
								fill="white"
								r="4"
								stroke="black"
								stroke-width="2">
							</circle>
						</g>
					</g>
					<text
						fill="black"
						font-size="50"
						text-anchor="middle"
						x="275"
						y="100">
						false
					</text>
				</g>
				<circle
					cx="118.75"
					cy="0"
					fill="black"
					r="4"
					stroke="black"
					stroke-width="2">
				</circle>
				<circle
					cx="237.5"
					cy="0"
					fill="white"
					r="4"
					stroke="black"
					stroke-width="2">
				</circle>
				<circle
					cx="356.25"
					cy="0"
					fill="white"
					r="4"
					stroke="black"
					stroke-width="2">
				</circle>
				<circle
					cx="118.75"
					cy="500"
					fill="white"
					r="4"
					stroke="black"
					stroke-width="2">
				</circle>
				<circle
					cx="237.5"
					cy="500"
					fill="white"
					r="4"
					stroke="black"
					stroke-width="2">
				</circle>
				<circle
					cx="356.25"
					cy="500"
					fill="white"
					r="4"
					stroke="black"
					stroke-width="2">
				</circle>
			</g>
			<g
				transform="translate(875, 900)">
				<g>
					<rect
						fill="#FFFF80"
						height="100"
						rx="10"
						stroke="black"
						stroke-width="2"
						width="100">
					</rect>
					<text
						fill="black"
						font-size="50"
						text-anchor="middle"
						x="50"
						y="62.5">
						print
					</text>
				</g>
				<circle
					cx="33.333332"
					cy="0"
					fill="white"
					r="4"
					stroke="black"
					stroke-width="2">
				</circle>
				<circle
					cx="66.666664"
					cy="0"
					fill="white"
					r="4"
					stroke="black"
					stroke-width="2">
				</circle>
				<circle
					cx="50"
					cy="100"
					fill="white"
					r="4"
					stroke="black"
					stroke-width="2">
				</circle>
			</g>
			<g
				transform="translate(1025, 1050)">
				<g>
					<rect
						fill="#FFFF80"
						height="100"
						rx="10"
						stroke="black"
						stroke-width="2"
						width="100">
					</rect>
					<text
						fill="black"
						font-size="50"
						text-anchor="middle"
						x="50"
						y="62.5">
						print
					</text>
				</g>
				<circle
					cx="33.333332"
					cy="0"
					fill="white"
					r="4"
					stroke="black"
					stroke-width="2">
				</circle>
				<circle
					cx="66.666664"
					cy="0"
					fill="white"
					r="4"
					stroke="black"
					stroke-width="2">
				</circle>
				<circle
					cx="50"
					cy="100"
					fill="white"
					r="4"
					stroke="black"
					stroke-width="2">
				</circle>
			</g>
		</g>
		<g>
			<circle
				cx="391.66666"
				cy="0"
				fill="white"
				r="4"
				stroke="black"
				stroke-width="2">
			</circle>
			<circle
				cx="783.3333"
				cy="0"
				fill="white"
				r="4"
				stroke="black"
				stroke-width="2">
			</circle>
		</g>
		<g>
			<circle
				cx="587.5"
				cy="1200"
				fill="white"
				r="4"
				stroke="black"
				stroke-width="2">
			</circle>
		</g>
	</g>
</svg>

